<?xml version="1.0" encoding="UTF-8"?>
<svg xmlns="http://www.w3.org/2000/svg" xmlns:xlink="http://www.w3.org/1999/xlink" width="16px" height="16px" viewBox="0 0 16 16" version="1.1">
<g id="surface1">
<path style=" stroke:none;fill-rule:evenodd;fill:rgb(50.588238%,59.607846%,68.235296%);fill-opacity:1;" d="M 9.332031 1.332031 C 10.070312 1.332031 10.667969 1.929688 10.667969 2.667969 C 10.667969 3.632812 11.351562 4.441406 12.265625 4.625 C 12.988281 4.773438 13.453125 5.476562 13.304688 6.199219 C 13.160156 6.921875 12.457031 7.386719 11.734375 7.238281 C 11.359375 7.164062 11.003906 7.042969 10.667969 6.882812 L 10.667969 10.667969 C 10.667969 12.875 8.875 14.667969 6.667969 14.667969 C 4.457031 14.667969 2.667969 12.875 2.667969 10.667969 C 2.667969 8.800781 3.941406 7.238281 5.667969 6.792969 C 6.378906 6.609375 7.109375 7.039062 7.292969 7.75 C 7.476562 8.464844 7.046875 9.191406 6.332031 9.375 C 5.757812 9.523438 5.332031 10.046875 5.332031 10.667969 C 5.332031 11.402344 5.929688 12 6.667969 12 C 7.402344 12 8 11.402344 8 10.667969 L 8 2.667969 C 8 1.929688 8.597656 1.332031 9.332031 1.332031 Z M 9.332031 1.332031 "/>
</g>
</svg>
